<mxfile host="app.diagrams.net" modified="2023-12-29T12:41:50.264Z" agent="Mozilla/5.0 (Windows NT 10.0; Win64; x64; rv:121.0) Gecko/20100101 Firefox/121.0" etag="rnIfCRIm7Vrc_ikzPnVS" version="22.1.16" type="github">
  <diagram name="PÃ¡gina-1" id="ZlQyiPSFrL7CcYV8kKTX">
    <mxGraphModel dx="880" dy="452" grid="1" gridSize="10" guides="1" tooltips="1" connect="1" arrows="1" fold="1" page="1" pageScale="1" pageWidth="827" pageHeight="1169" math="0" shadow="0">
      <root>
        <mxCell id="0" />
        <mxCell id="1" parent="0" />
        <mxCell id="BwbXATqt2oTvsvLEoZ2m-17" value="Sistema" style="swimlane;fontStyle=0;childLayout=stackLayout;horizontal=1;startSize=30;horizontalStack=0;resizeParent=1;resizeParentMax=0;resizeLast=0;collapsible=1;marginBottom=0;whiteSpace=wrap;html=1;" parent="1" vertex="1">
          <mxGeometry x="30" y="20" width="140" height="360" as="geometry" />
        </mxCell>
        <mxCell id="BwbXATqt2oTvsvLEoZ2m-18" value="configs" style="text;strokeColor=none;fillColor=none;align=left;verticalAlign=middle;spacingLeft=4;spacingRight=4;overflow=hidden;points=[[0,0.5],[1,0.5]];portConstraint=eastwest;rotatable=0;whiteSpace=wrap;html=1;" parent="BwbXATqt2oTvsvLEoZ2m-17" vertex="1">
          <mxGeometry y="30" width="140" height="30" as="geometry" />
        </mxCell>
        <mxCell id="BwbXATqt2oTvsvLEoZ2m-19" value="productos: Vec&amp;lt;&amp;gt;" style="text;strokeColor=none;fillColor=none;align=left;verticalAlign=middle;spacingLeft=4;spacingRight=4;overflow=hidden;points=[[0,0.5],[1,0.5]];portConstraint=eastwest;rotatable=0;whiteSpace=wrap;html=1;" parent="BwbXATqt2oTvsvLEoZ2m-17" vertex="1">
          <mxGeometry y="60" width="140" height="30" as="geometry" />
        </mxCell>
        <mxCell id="BwbXATqt2oTvsvLEoZ2m-20" value="ventas" style="text;strokeColor=none;fillColor=none;align=left;verticalAlign=middle;spacingLeft=4;spacingRight=4;overflow=hidden;points=[[0,0.5],[1,0.5]];portConstraint=eastwest;rotatable=0;whiteSpace=wrap;html=1;" parent="BwbXATqt2oTvsvLEoZ2m-17" vertex="1">
          <mxGeometry y="90" width="140" height="30" as="geometry" />
        </mxCell>
        <mxCell id="BwbXATqt2oTvsvLEoZ2m-21" value="&lt;div&gt;proveedores&lt;/div&gt;" style="text;strokeColor=none;fillColor=none;align=left;verticalAlign=middle;spacingLeft=4;spacingRight=4;overflow=hidden;points=[[0,0.5],[1,0.5]];portConstraint=eastwest;rotatable=0;whiteSpace=wrap;html=1;" parent="BwbXATqt2oTvsvLEoZ2m-17" vertex="1">
          <mxGeometry y="120" width="140" height="30" as="geometry" />
        </mxCell>
        <mxCell id="BwbXATqt2oTvsvLEoZ2m-22" value="path_productos" style="text;strokeColor=none;fillColor=none;align=left;verticalAlign=middle;spacingLeft=4;spacingRight=4;overflow=hidden;points=[[0,0.5],[1,0.5]];portConstraint=eastwest;rotatable=0;whiteSpace=wrap;html=1;" parent="BwbXATqt2oTvsvLEoZ2m-17" vertex="1">
          <mxGeometry y="150" width="140" height="30" as="geometry" />
        </mxCell>
        <mxCell id="BwbXATqt2oTvsvLEoZ2m-23" value="path_proveedores" style="text;strokeColor=none;fillColor=none;align=left;verticalAlign=middle;spacingLeft=4;spacingRight=4;overflow=hidden;points=[[0,0.5],[1,0.5]];portConstraint=eastwest;rotatable=0;whiteSpace=wrap;html=1;" parent="BwbXATqt2oTvsvLEoZ2m-17" vertex="1">
          <mxGeometry y="180" width="140" height="30" as="geometry" />
        </mxCell>
        <mxCell id="BwbXATqt2oTvsvLEoZ2m-24" value="path_relaciones" style="text;strokeColor=none;fillColor=none;align=left;verticalAlign=middle;spacingLeft=4;spacingRight=4;overflow=hidden;points=[[0,0.5],[1,0.5]];portConstraint=eastwest;rotatable=0;whiteSpace=wrap;html=1;" parent="BwbXATqt2oTvsvLEoZ2m-17" vertex="1">
          <mxGeometry y="210" width="140" height="30" as="geometry" />
        </mxCell>
        <mxCell id="BwbXATqt2oTvsvLEoZ2m-25" value="path_configs" style="text;strokeColor=none;fillColor=none;align=left;verticalAlign=middle;spacingLeft=4;spacingRight=4;overflow=hidden;points=[[0,0.5],[1,0.5]];portConstraint=eastwest;rotatable=0;whiteSpace=wrap;html=1;" parent="BwbXATqt2oTvsvLEoZ2m-17" vertex="1">
          <mxGeometry y="240" width="140" height="30" as="geometry" />
        </mxCell>
        <mxCell id="BwbXATqt2oTvsvLEoZ2m-26" value="relaciones" style="text;strokeColor=none;fillColor=none;align=left;verticalAlign=middle;spacingLeft=4;spacingRight=4;overflow=hidden;points=[[0,0.5],[1,0.5]];portConstraint=eastwest;rotatable=0;whiteSpace=wrap;html=1;" parent="BwbXATqt2oTvsvLEoZ2m-17" vertex="1">
          <mxGeometry y="270" width="140" height="30" as="geometry" />
        </mxCell>
        <mxCell id="BwbXATqt2oTvsvLEoZ2m-27" value="stash" style="text;strokeColor=none;fillColor=none;align=left;verticalAlign=middle;spacingLeft=4;spacingRight=4;overflow=hidden;points=[[0,0.5],[1,0.5]];portConstraint=eastwest;rotatable=0;whiteSpace=wrap;html=1;" parent="BwbXATqt2oTvsvLEoZ2m-17" vertex="1">
          <mxGeometry y="300" width="140" height="30" as="geometry" />
        </mxCell>
        <mxCell id="BwbXATqt2oTvsvLEoZ2m-28" value="registro" style="text;strokeColor=none;fillColor=none;align=left;verticalAlign=middle;spacingLeft=4;spacingRight=4;overflow=hidden;points=[[0,0.5],[1,0.5]];portConstraint=eastwest;rotatable=0;whiteSpace=wrap;html=1;" parent="BwbXATqt2oTvsvLEoZ2m-17" vertex="1">
          <mxGeometry y="330" width="140" height="30" as="geometry" />
        </mxCell>
        <mxCell id="BwbXATqt2oTvsvLEoZ2m-29" value="&lt;div&gt;Config&lt;/div&gt;" style="swimlane;fontStyle=0;childLayout=stackLayout;horizontal=1;startSize=30;horizontalStack=0;resizeParent=1;resizeParentMax=0;resizeLast=0;collapsible=1;marginBottom=0;whiteSpace=wrap;html=1;" parent="1" vertex="1">
          <mxGeometry x="333.5" y="20" width="160" height="180" as="geometry" />
        </mxCell>
        <mxCell id="BwbXATqt2oTvsvLEoZ2m-30" value="politica_redondeo: f64" style="text;strokeColor=none;fillColor=none;align=left;verticalAlign=middle;spacingLeft=4;spacingRight=4;overflow=hidden;points=[[0,0.5],[1,0.5]];portConstraint=eastwest;rotatable=0;whiteSpace=wrap;html=1;" parent="BwbXATqt2oTvsvLEoZ2m-29" vertex="1">
          <mxGeometry y="30" width="160" height="30" as="geometry" />
        </mxCell>
        <mxCell id="BwbXATqt2oTvsvLEoZ2m-31" value="formato_producto" style="text;strokeColor=none;fillColor=none;align=left;verticalAlign=middle;spacingLeft=4;spacingRight=4;overflow=hidden;points=[[0,0.5],[1,0.5]];portConstraint=eastwest;rotatable=0;whiteSpace=wrap;html=1;" parent="BwbXATqt2oTvsvLEoZ2m-29" vertex="1">
          <mxGeometry y="60" width="160" height="30" as="geometry" />
        </mxCell>
        <mxCell id="BwbXATqt2oTvsvLEoZ2m-32" value="modo_mayus" style="text;strokeColor=none;fillColor=none;align=left;verticalAlign=middle;spacingLeft=4;spacingRight=4;overflow=hidden;points=[[0,0.5],[1,0.5]];portConstraint=eastwest;rotatable=0;whiteSpace=wrap;html=1;" parent="BwbXATqt2oTvsvLEoZ2m-29" vertex="1">
          <mxGeometry y="90" width="160" height="30" as="geometry" />
        </mxCell>
        <mxCell id="BwbXATqt2oTvsvLEoZ2m-33" value="cantidad_productos: usize" style="text;strokeColor=none;fillColor=none;align=left;verticalAlign=middle;spacingLeft=4;spacingRight=4;overflow=hidden;points=[[0,0.5],[1,0.5]];portConstraint=eastwest;rotatable=0;whiteSpace=wrap;html=1;" parent="BwbXATqt2oTvsvLEoZ2m-29" vertex="1">
          <mxGeometry y="120" width="160" height="30" as="geometry" />
        </mxCell>
        <mxCell id="BwbXATqt2oTvsvLEoZ2m-34" value="medios_pago: Vec&amp;lt;String&amp;gt;" style="text;strokeColor=none;fillColor=none;align=left;verticalAlign=middle;spacingLeft=4;spacingRight=4;overflow=hidden;points=[[0,0.5],[1,0.5]];portConstraint=eastwest;rotatable=0;whiteSpace=wrap;html=1;" parent="BwbXATqt2oTvsvLEoZ2m-29" vertex="1">
          <mxGeometry y="150" width="160" height="30" as="geometry" />
        </mxCell>
        <mxCell id="BwbXATqt2oTvsvLEoZ2m-35" style="edgeStyle=orthogonalEdgeStyle;rounded=0;orthogonalLoop=1;jettySize=auto;html=1;entryX=-0.006;entryY=0.072;entryDx=0;entryDy=0;entryPerimeter=0;" parent="1" source="BwbXATqt2oTvsvLEoZ2m-18" target="BwbXATqt2oTvsvLEoZ2m-29" edge="1">
          <mxGeometry relative="1" as="geometry" />
        </mxCell>
        <mxCell id="BwbXATqt2oTvsvLEoZ2m-36" value="Formato" style="swimlane;fontStyle=0;childLayout=stackLayout;horizontal=1;startSize=30;horizontalStack=0;resizeParent=1;resizeParentMax=0;resizeLast=0;collapsible=1;marginBottom=0;whiteSpace=wrap;html=1;" parent="1" vertex="1">
          <mxGeometry x="660" y="10" width="140" height="90" as="geometry" />
        </mxCell>
        <mxCell id="BwbXATqt2oTvsvLEoZ2m-37" value="Tmv" style="text;strokeColor=none;fillColor=none;align=left;verticalAlign=middle;spacingLeft=4;spacingRight=4;overflow=hidden;points=[[0,0.5],[1,0.5]];portConstraint=eastwest;rotatable=0;whiteSpace=wrap;html=1;" parent="BwbXATqt2oTvsvLEoZ2m-36" vertex="1">
          <mxGeometry y="30" width="140" height="30" as="geometry" />
        </mxCell>
        <mxCell id="BwbXATqt2oTvsvLEoZ2m-38" value="Mvt" style="text;strokeColor=none;fillColor=none;align=left;verticalAlign=middle;spacingLeft=4;spacingRight=4;overflow=hidden;points=[[0,0.5],[1,0.5]];portConstraint=eastwest;rotatable=0;whiteSpace=wrap;html=1;" parent="BwbXATqt2oTvsvLEoZ2m-36" vertex="1">
          <mxGeometry y="60" width="140" height="30" as="geometry" />
        </mxCell>
        <mxCell id="BwbXATqt2oTvsvLEoZ2m-40" style="edgeStyle=orthogonalEdgeStyle;rounded=0;orthogonalLoop=1;jettySize=auto;html=1;entryX=-0.007;entryY=0.122;entryDx=0;entryDy=0;entryPerimeter=0;" parent="1" source="BwbXATqt2oTvsvLEoZ2m-31" target="BwbXATqt2oTvsvLEoZ2m-36" edge="1">
          <mxGeometry relative="1" as="geometry" />
        </mxCell>
        <mxCell id="BwbXATqt2oTvsvLEoZ2m-41" value="Mayusculas" style="swimlane;fontStyle=0;childLayout=stackLayout;horizontal=1;startSize=30;horizontalStack=0;resizeParent=1;resizeParentMax=0;resizeLast=0;collapsible=1;marginBottom=0;whiteSpace=wrap;html=1;" parent="1" vertex="1">
          <mxGeometry x="660" y="110" width="140" height="120" as="geometry" />
        </mxCell>
        <mxCell id="BwbXATqt2oTvsvLEoZ2m-42" value="Upper" style="text;strokeColor=none;fillColor=none;align=left;verticalAlign=middle;spacingLeft=4;spacingRight=4;overflow=hidden;points=[[0,0.5],[1,0.5]];portConstraint=eastwest;rotatable=0;whiteSpace=wrap;html=1;" parent="BwbXATqt2oTvsvLEoZ2m-41" vertex="1">
          <mxGeometry y="30" width="140" height="30" as="geometry" />
        </mxCell>
        <mxCell id="BwbXATqt2oTvsvLEoZ2m-43" value="Lower" style="text;strokeColor=none;fillColor=none;align=left;verticalAlign=middle;spacingLeft=4;spacingRight=4;overflow=hidden;points=[[0,0.5],[1,0.5]];portConstraint=eastwest;rotatable=0;whiteSpace=wrap;html=1;" parent="BwbXATqt2oTvsvLEoZ2m-41" vertex="1">
          <mxGeometry y="60" width="140" height="30" as="geometry" />
        </mxCell>
        <mxCell id="BwbXATqt2oTvsvLEoZ2m-44" value="Camel" style="text;strokeColor=none;fillColor=none;align=left;verticalAlign=middle;spacingLeft=4;spacingRight=4;overflow=hidden;points=[[0,0.5],[1,0.5]];portConstraint=eastwest;rotatable=0;whiteSpace=wrap;html=1;" parent="BwbXATqt2oTvsvLEoZ2m-41" vertex="1">
          <mxGeometry y="90" width="140" height="30" as="geometry" />
        </mxCell>
        <mxCell id="BwbXATqt2oTvsvLEoZ2m-45" style="edgeStyle=orthogonalEdgeStyle;rounded=0;orthogonalLoop=1;jettySize=auto;html=1;entryX=0.014;entryY=0.142;entryDx=0;entryDy=0;entryPerimeter=0;" parent="1" source="BwbXATqt2oTvsvLEoZ2m-32" target="BwbXATqt2oTvsvLEoZ2m-41" edge="1">
          <mxGeometry relative="1" as="geometry" />
        </mxCell>
        <mxCell id="BwbXATqt2oTvsvLEoZ2m-46" value="Valuable" style="swimlane;fontStyle=0;childLayout=stackLayout;horizontal=1;startSize=30;horizontalStack=0;resizeParent=1;resizeParentMax=0;resizeLast=0;collapsible=1;marginBottom=0;whiteSpace=wrap;html=1;" parent="1" vertex="1">
          <mxGeometry x="344" y="220" width="140" height="120" as="geometry" />
        </mxCell>
        <mxCell id="BwbXATqt2oTvsvLEoZ2m-47" value="Prod(u32,Producto)" style="text;strokeColor=none;fillColor=none;align=left;verticalAlign=middle;spacingLeft=4;spacingRight=4;overflow=hidden;points=[[0,0.5],[1,0.5]];portConstraint=eastwest;rotatable=0;whiteSpace=wrap;html=1;" parent="BwbXATqt2oTvsvLEoZ2m-46" vertex="1">
          <mxGeometry y="30" width="140" height="30" as="geometry" />
        </mxCell>
        <mxCell id="BwbXATqt2oTvsvLEoZ2m-48" value="Pes(f64, Pesable)" style="text;strokeColor=none;fillColor=none;align=left;verticalAlign=middle;spacingLeft=4;spacingRight=4;overflow=hidden;points=[[0,0.5],[1,0.5]];portConstraint=eastwest;rotatable=0;whiteSpace=wrap;html=1;" parent="BwbXATqt2oTvsvLEoZ2m-46" vertex="1">
          <mxGeometry y="60" width="140" height="30" as="geometry" />
        </mxCell>
        <mxCell id="BwbXATqt2oTvsvLEoZ2m-49" value="Rub(u32, Rubro)" style="text;strokeColor=none;fillColor=none;align=left;verticalAlign=middle;spacingLeft=4;spacingRight=4;overflow=hidden;points=[[0,0.5],[1,0.5]];portConstraint=eastwest;rotatable=0;whiteSpace=wrap;html=1;" parent="BwbXATqt2oTvsvLEoZ2m-46" vertex="1">
          <mxGeometry y="90" width="140" height="30" as="geometry" />
        </mxCell>
        <mxCell id="BwbXATqt2oTvsvLEoZ2m-50" style="edgeStyle=orthogonalEdgeStyle;rounded=0;orthogonalLoop=1;jettySize=auto;html=1;entryX=0;entryY=0.117;entryDx=0;entryDy=0;entryPerimeter=0;" parent="1" source="BwbXATqt2oTvsvLEoZ2m-19" target="BwbXATqt2oTvsvLEoZ2m-46" edge="1">
          <mxGeometry relative="1" as="geometry">
            <Array as="points">
              <mxPoint x="290" y="95" />
              <mxPoint x="290" y="234" />
            </Array>
          </mxGeometry>
        </mxCell>
        <mxCell id="BwbXATqt2oTvsvLEoZ2m-51" value="Producto" style="swimlane;fontStyle=0;childLayout=stackLayout;horizontal=1;startSize=30;horizontalStack=0;resizeParent=1;resizeParentMax=0;resizeLast=0;collapsible=1;marginBottom=0;whiteSpace=wrap;html=1;" parent="1" vertex="1">
          <mxGeometry x="570" y="240" width="290" height="300" as="geometry" />
        </mxCell>
        <mxCell id="BwbXATqt2oTvsvLEoZ2m-52" value="id: i64" style="text;strokeColor=none;fillColor=none;align=left;verticalAlign=middle;spacingLeft=4;spacingRight=4;overflow=hidden;points=[[0,0.5],[1,0.5]];portConstraint=eastwest;rotatable=0;whiteSpace=wrap;html=1;" parent="BwbXATqt2oTvsvLEoZ2m-51" vertex="1">
          <mxGeometry y="30" width="290" height="30" as="geometry" />
        </mxCell>
        <mxCell id="BwbXATqt2oTvsvLEoZ2m-53" value="codigos_de_barras: Vec&amp;lt;uCodigo]Barras&amp;gt;" style="text;strokeColor=none;fillColor=none;align=left;verticalAlign=middle;spacingLeft=4;spacingRight=4;overflow=hidden;points=[[0,0.5],[1,0.5]];portConstraint=eastwest;rotatable=0;whiteSpace=wrap;html=1;" parent="BwbXATqt2oTvsvLEoZ2m-51" vertex="1">
          <mxGeometry y="60" width="290" height="30" as="geometry" />
        </mxCell>
        <mxCell id="BwbXATqt2oTvsvLEoZ2m-54" value="precio_de_venta: f64" style="text;strokeColor=none;fillColor=none;align=left;verticalAlign=middle;spacingLeft=4;spacingRight=4;overflow=hidden;points=[[0,0.5],[1,0.5]];portConstraint=eastwest;rotatable=0;whiteSpace=wrap;html=1;" parent="BwbXATqt2oTvsvLEoZ2m-51" vertex="1">
          <mxGeometry y="90" width="290" height="30" as="geometry" />
        </mxCell>
        <mxCell id="BwbXATqt2oTvsvLEoZ2m-62" value="porcentaje: f64" style="text;strokeColor=none;fillColor=none;align=left;verticalAlign=middle;spacingLeft=4;spacingRight=4;overflow=hidden;points=[[0,0.5],[1,0.5]];portConstraint=eastwest;rotatable=0;whiteSpace=wrap;html=1;" parent="BwbXATqt2oTvsvLEoZ2m-51" vertex="1">
          <mxGeometry y="120" width="290" height="30" as="geometry" />
        </mxCell>
        <mxCell id="BwbXATqt2oTvsvLEoZ2m-64" value="precio_de_costo: f64" style="text;strokeColor=none;fillColor=none;align=left;verticalAlign=middle;spacingLeft=4;spacingRight=4;overflow=hidden;points=[[0,0.5],[1,0.5]];portConstraint=eastwest;rotatable=0;whiteSpace=wrap;html=1;" parent="BwbXATqt2oTvsvLEoZ2m-51" vertex="1">
          <mxGeometry y="150" width="290" height="30" as="geometry" />
        </mxCell>
        <mxCell id="BwbXATqt2oTvsvLEoZ2m-65" value="porcentaje: f64" style="text;strokeColor=none;fillColor=none;align=left;verticalAlign=middle;spacingLeft=4;spacingRight=4;overflow=hidden;points=[[0,0.5],[1,0.5]];portConstraint=eastwest;rotatable=0;whiteSpace=wrap;html=1;" parent="BwbXATqt2oTvsvLEoZ2m-51" vertex="1">
          <mxGeometry y="180" width="290" height="30" as="geometry" />
        </mxCell>
        <mxCell id="BwbXATqt2oTvsvLEoZ2m-66" value="porcentaje: f64" style="text;strokeColor=none;fillColor=none;align=left;verticalAlign=middle;spacingLeft=4;spacingRight=4;overflow=hidden;points=[[0,0.5],[1,0.5]];portConstraint=eastwest;rotatable=0;whiteSpace=wrap;html=1;" parent="BwbXATqt2oTvsvLEoZ2m-51" vertex="1">
          <mxGeometry y="210" width="290" height="30" as="geometry" />
        </mxCell>
        <mxCell id="BwbXATqt2oTvsvLEoZ2m-67" value="porcentaje: f64" style="text;strokeColor=none;fillColor=none;align=left;verticalAlign=middle;spacingLeft=4;spacingRight=4;overflow=hidden;points=[[0,0.5],[1,0.5]];portConstraint=eastwest;rotatable=0;whiteSpace=wrap;html=1;" parent="BwbXATqt2oTvsvLEoZ2m-51" vertex="1">
          <mxGeometry y="240" width="290" height="30" as="geometry" />
        </mxCell>
        <mxCell id="BwbXATqt2oTvsvLEoZ2m-68" value="porcentaje: f64" style="text;strokeColor=none;fillColor=none;align=left;verticalAlign=middle;spacingLeft=4;spacingRight=4;overflow=hidden;points=[[0,0.5],[1,0.5]];portConstraint=eastwest;rotatable=0;whiteSpace=wrap;html=1;" parent="BwbXATqt2oTvsvLEoZ2m-51" vertex="1">
          <mxGeometry y="270" width="290" height="30" as="geometry" />
        </mxCell>
        <mxCell id="BwbXATqt2oTvsvLEoZ2m-55" value="&lt;div&gt;CodigoBarras&lt;/div&gt;" style="swimlane;fontStyle=0;childLayout=stackLayout;horizontal=1;startSize=30;horizontalStack=0;resizeParent=1;resizeParentMax=0;resizeLast=0;collapsible=1;marginBottom=0;whiteSpace=wrap;html=1;" parent="1" vertex="1">
          <mxGeometry x="910" y="10" width="140" height="90" as="geometry" />
        </mxCell>
        <mxCell id="BwbXATqt2oTvsvLEoZ2m-56" value="producto: i64" style="text;strokeColor=none;fillColor=none;align=left;verticalAlign=middle;spacingLeft=4;spacingRight=4;overflow=hidden;points=[[0,0.5],[1,0.5]];portConstraint=eastwest;rotatable=0;whiteSpace=wrap;html=1;" parent="BwbXATqt2oTvsvLEoZ2m-55" vertex="1">
          <mxGeometry y="30" width="140" height="30" as="geometry" />
        </mxCell>
        <mxCell id="BwbXATqt2oTvsvLEoZ2m-57" value="codigo: u128" style="text;strokeColor=none;fillColor=none;align=left;verticalAlign=middle;spacingLeft=4;spacingRight=4;overflow=hidden;points=[[0,0.5],[1,0.5]];portConstraint=eastwest;rotatable=0;whiteSpace=wrap;html=1;" parent="BwbXATqt2oTvsvLEoZ2m-55" vertex="1">
          <mxGeometry y="60" width="140" height="30" as="geometry" />
        </mxCell>
        <mxCell id="BwbXATqt2oTvsvLEoZ2m-61" style="edgeStyle=orthogonalEdgeStyle;rounded=0;orthogonalLoop=1;jettySize=auto;html=1;entryX=0.007;entryY=0.111;entryDx=0;entryDy=0;entryPerimeter=0;" parent="1" source="BwbXATqt2oTvsvLEoZ2m-53" target="BwbXATqt2oTvsvLEoZ2m-55" edge="1">
          <mxGeometry relative="1" as="geometry" />
        </mxCell>
        <mxCell id="BwbXATqt2oTvsvLEoZ2m-63" style="edgeStyle=orthogonalEdgeStyle;rounded=0;orthogonalLoop=1;jettySize=auto;html=1;entryX=-0.007;entryY=0.06;entryDx=0;entryDy=0;entryPerimeter=0;" parent="1" source="BwbXATqt2oTvsvLEoZ2m-47" target="BwbXATqt2oTvsvLEoZ2m-51" edge="1">
          <mxGeometry relative="1" as="geometry">
            <mxPoint x="560" y="251" as="targetPoint" />
          </mxGeometry>
        </mxCell>
      </root>
    </mxGraphModel>
  </diagram>
</mxfile>
